HIERARCHY
ROOT Hips
{
	OFFSET -381.209564 -574.901306 88.753189
	CHANNELS 6 Xposition Yposition Zposition Zrotation Yrotation Xrotation
	JOINT Spine
	{
		OFFSET 0.000000 2.080078 8.814247
		CHANNELS 6 Xposition Yposition Zposition Zrotation Yrotation Xrotation
		JOINT Spine1
		{
			OFFSET 0.000000 0.000000 8.844139
			CHANNELS 6 Xposition Yposition Zposition Zrotation Yrotation Xrotation
			JOINT Spine2
			{
				OFFSET 0.000000 0.000000 11.682266
				CHANNELS 6 Xposition Yposition Zposition Zrotation Yrotation Xrotation
				JOINT Spine3
				{
					OFFSET 0.000000 0.000000 11.746704
					CHANNELS 6 Xposition Yposition Zposition Zrotation Yrotation Xrotation
					JOINT Neck
					{
						OFFSET 0.000000 0.000000 17.658264
						CHANNELS 6 Xposition Yposition Zposition Zrotation Yrotation Xrotation
						JOINT Neck1
						{
							OFFSET 0.000000 0.000000 5.101517
							CHANNELS 6 Xposition Yposition Zposition Zrotation Yrotation Xrotation
							JOINT Head
							{
								OFFSET 0.000000 0.000000 5.101517
								CHANNELS 6 Xposition Yposition Zposition Zrotation Yrotation Xrotation
								JOINT HeadEnd
								{
									OFFSET 0.000000 0.000000 11.655090
									CHANNELS 6 Xposition Yposition Zposition Zrotation Yrotation Xrotation
									End Site
									{
										OFFSET 0.000000 0.000000 0.100006
									}
								}
							}
						}
					}
					JOINT RightShoulder
					{
						OFFSET -2.625397 0.000000 11.175217
						CHANNELS 6 Xposition Yposition Zposition Zrotation Yrotation Xrotation
						JOINT RightArm
						{
							OFFSET 0.000000 0.000000 10.434723
							CHANNELS 6 Xposition Yposition Zposition Zrotation Yrotation Xrotation
							JOINT RightForeArm
							{
								OFFSET 0.000000 0.000000 29.628418
								CHANNELS 6 Xposition Yposition Zposition Zrotation Yrotation Xrotation
								JOINT RightHand
								{
									OFFSET 0.000000 0.000000 22.857605
									CHANNELS 6 Xposition Yposition Zposition Zrotation Yrotation Xrotation
									JOINT RightHandThumb1
									{
										OFFSET -2.867310 -2.944275 3.959564
										CHANNELS 6 Xposition Yposition Zposition Zrotation Yrotation Xrotation
										JOINT RightHandThumb2
										{
											OFFSET 0.000000 0.000000 3.350403
											CHANNELS 6 Xposition Yposition Zposition Zrotation Yrotation Xrotation
											JOINT RightHandThumb3
											{
												OFFSET 0.000000 0.000000 3.756516
												CHANNELS 6 Xposition Yposition Zposition Zrotation Yrotation Xrotation
												JOINT RightHandThumb4
												{
													OFFSET 0.000000 0.000000 3.147339
													CHANNELS 6 Xposition Yposition Zposition Zrotation Yrotation Xrotation
													End Site
													{
														OFFSET 0.000000 0.000000 0.100006
													}
												}
											}
										}
									}
									JOINT RightHandIndex1
									{
										OFFSET -0.086761 -2.345276 10.030899
										CHANNELS 6 Xposition Yposition Zposition Zrotation Yrotation Xrotation
										JOINT RightHandIndex2
										{
											OFFSET 0.000000 0.000000 4.061096
											CHANNELS 6 Xposition Yposition Zposition Zrotation Yrotation Xrotation
											JOINT RightHandIndex3
											{
												OFFSET 0.000000 0.000000 3.248871
												CHANNELS 6 Xposition Yposition Zposition Zrotation Yrotation Xrotation
												JOINT RightHandIndex4
												{
													OFFSET 0.000000 0.000000 2.639709
													CHANNELS 6 Xposition Yposition Zposition Zrotation Yrotation Xrotation
													End Site
													{
														OFFSET 0.000000 0.000000 0.100006
													}
												}
											}
										}
									}
									JOINT RightHandMiddle1
									{
										OFFSET 0.104095 -0.006775 9.502945
										CHANNELS 6 Xposition Yposition Zposition Zrotation Yrotation Xrotation
										JOINT RightHandMiddle2
										{
											OFFSET 0.000000 0.000000 4.568726
											CHANNELS 6 Xposition Yposition Zposition Zrotation Yrotation Xrotation
											JOINT RightHandMiddle3
											{
												OFFSET 0.000000 0.000000 3.654984
												CHANNELS 6 Xposition Yposition Zposition Zrotation Yrotation Xrotation
												JOINT RightHandMiddle4
												{
													OFFSET 0.000000 0.000000 2.741241
													CHANNELS 6 Xposition Yposition Zposition Zrotation Yrotation Xrotation
													End Site
													{
														OFFSET 0.000000 0.000000 0.100006
													}
												}
											}
										}
									}
									JOINT RightHandRing1
									{
										OFFSET 0.086761 2.267456 8.921707
										CHANNELS 6 Xposition Yposition Zposition Zrotation Yrotation Xrotation
										JOINT RightHandRing2
										{
											OFFSET 0.000000 0.000000 4.061096
											CHANNELS 6 Xposition Yposition Zposition Zrotation Yrotation Xrotation
											JOINT RightHandRing3
											{
												OFFSET 0.000000 0.000000 3.654984
												CHANNELS 6 Xposition Yposition Zposition Zrotation Yrotation Xrotation
												JOINT RightHandRing4
												{
													OFFSET 0.000000 0.000000 2.741241
													CHANNELS 6 Xposition Yposition Zposition Zrotation Yrotation Xrotation
													End Site
													{
														OFFSET 0.000000 0.000000 0.100006
													}
												}
											}
										}
									}
									JOINT RightHandPinky1
									{
										OFFSET -0.173492 4.467224 7.976990
										CHANNELS 6 Xposition Yposition Zposition Zrotation Yrotation Xrotation
										JOINT RightHandPinky2
										{
											OFFSET 0.000000 0.000000 3.350403
											CHANNELS 6 Xposition Yposition Zposition Zrotation Yrotation Xrotation
											JOINT RightHandPinky3
											{
												OFFSET 0.000000 0.000000 2.842758
												CHANNELS 6 Xposition Yposition Zposition Zrotation Yrotation Xrotation
												JOINT RightHandPinky4
												{
													OFFSET 0.000000 0.000000 2.639709
													CHANNELS 6 Xposition Yposition Zposition Zrotation Yrotation Xrotation
													End Site
													{
														OFFSET 0.000000 0.000000 0.100006
													}
												}
											}
										}
									}
									JOINT RightForeArmEnd
									{
										OFFSET 0.000000 0.000000 0.000000
										CHANNELS 6 Xposition Yposition Zposition Zrotation Yrotation Xrotation
										End Site
										{
											OFFSET 0.000000 0.000000 0.100006
										}
									}
								}
								JOINT RightArmEnd
								{
									OFFSET 0.000000 0.000000 0.000000
									CHANNELS 6 Xposition Yposition Zposition Zrotation Yrotation Xrotation
									End Site
									{
										OFFSET 0.000000 0.000000 0.100006
									}
								}
							}
						}
					}
					JOINT LeftShoulder
					{
						OFFSET 2.625397 0.000000 11.175217
						CHANNELS 6 Xposition Yposition Zposition Zrotation Yrotation Xrotation
						JOINT LeftArm
						{
							OFFSET 0.000000 0.000000 10.813629
							CHANNELS 6 Xposition Yposition Zposition Zrotation Yrotation Xrotation
							JOINT LeftForeArm
							{
								OFFSET 0.000000 0.000000 28.724777
								CHANNELS 6 Xposition Yposition Zposition Zrotation Yrotation Xrotation
								JOINT LeftHand
								{
									OFFSET 0.644379 0.328857 25.716171
									CHANNELS 6 Xposition Yposition Zposition Zrotation Yrotation Xrotation
									JOINT LeftHandThumb1
									{
										OFFSET 2.867310 -2.944275 3.959564
										CHANNELS 6 Xposition Yposition Zposition Zrotation Yrotation Xrotation
										JOINT LeftHandThumb2
										{
											OFFSET 0.000000 0.000000 3.350403
											CHANNELS 6 Xposition Yposition Zposition Zrotation Yrotation Xrotation
											JOINT LeftHandThumb3
											{
												OFFSET 0.000000 0.000000 3.756516
												CHANNELS 6 Xposition Yposition Zposition Zrotation Yrotation Xrotation
												JOINT LeftHandThumb4
												{
													OFFSET 0.000000 0.000000 3.100006
													CHANNELS 6 Xposition Yposition Zposition Zrotation Yrotation Xrotation
													End Site
													{
														OFFSET 0.000000 0.000000 0.100006
													}
												}
											}
										}
									}
									JOINT LeftHandIndex1
									{
										OFFSET 0.086761 -2.345276 10.030899
										CHANNELS 6 Xposition Yposition Zposition Zrotation Yrotation Xrotation
										JOINT LeftHandIndex2
										{
											OFFSET 0.000000 0.000000 4.061096
											CHANNELS 6 Xposition Yposition Zposition Zrotation Yrotation Xrotation
											JOINT LeftHandIndex3
											{
												OFFSET 0.000000 0.000000 3.248871
												CHANNELS 6 Xposition Yposition Zposition Zrotation Yrotation Xrotation
												JOINT LeftHandIndex4
												{
													OFFSET 0.000000 0.000000 2.639709
													CHANNELS 6 Xposition Yposition Zposition Zrotation Yrotation Xrotation
													End Site
													{
														OFFSET 0.000000 0.000000 0.100006
													}
												}
											}
										}
									}
									JOINT LeftHandMiddle1
									{
										OFFSET -0.104095 -0.006775 9.502945
										CHANNELS 6 Xposition Yposition Zposition Zrotation Yrotation Xrotation
										JOINT LeftHandMiddle2
										{
											OFFSET 0.000000 0.000000 4.568726
											CHANNELS 6 Xposition Yposition Zposition Zrotation Yrotation Xrotation
											JOINT LeftHandMiddle3
											{
												OFFSET 0.000000 0.000000 3.654984
												CHANNELS 6 Xposition Yposition Zposition Zrotation Yrotation Xrotation
												JOINT LeftHandMiddle4
												{
													OFFSET 0.000000 0.000000 2.741241
													CHANNELS 6 Xposition Yposition Zposition Zrotation Yrotation Xrotation
													End Site
													{
														OFFSET 0.000000 0.000000 0.100006
													}
												}
											}
										}
									}
									JOINT LeftHandRing1
									{
										OFFSET -0.086761 2.267456 8.921707
										CHANNELS 6 Xposition Yposition Zposition Zrotation Yrotation Xrotation
										JOINT LeftHandRing2
										{
											OFFSET 0.000000 0.000000 4.061096
											CHANNELS 6 Xposition Yposition Zposition Zrotation Yrotation Xrotation
											JOINT LeftHandRing3
											{
												OFFSET 0.000000 0.000000 3.654984
												CHANNELS 6 Xposition Yposition Zposition Zrotation Yrotation Xrotation
												JOINT LeftHandRing4
												{
													OFFSET 0.000000 0.000000 2.741241
													CHANNELS 6 Xposition Yposition Zposition Zrotation Yrotation Xrotation
													End Site
													{
														OFFSET 0.000000 0.000000 0.100006
													}
												}
											}
										}
									}
									JOINT LeftHandPinky1
									{
										OFFSET 0.173492 4.467224 7.976990
										CHANNELS 6 Xposition Yposition Zposition Zrotation Yrotation Xrotation
										JOINT LeftHandPinky2
										{
											OFFSET 0.000000 0.000000 3.350403
											CHANNELS 6 Xposition Yposition Zposition Zrotation Yrotation Xrotation
											JOINT LeftHandPinky3
											{
												OFFSET 0.000000 0.000000 2.842758
												CHANNELS 6 Xposition Yposition Zposition Zrotation Yrotation Xrotation
												JOINT LeftHandPinky4
												{
													OFFSET 0.000000 0.000000 2.639709
													CHANNELS 6 Xposition Yposition Zposition Zrotation Yrotation Xrotation
													End Site
													{
														OFFSET 0.000000 0.000000 0.100006
													}
												}
											}
										}
									}
									JOINT LeftForeArmEnd
									{
										OFFSET 0.000000 0.000000 0.000000
										CHANNELS 6 Xposition Yposition Zposition Zrotation Yrotation Xrotation
										End Site
										{
											OFFSET 0.000000 0.000000 0.100006
										}
									}
								}
								JOINT LeftArmEnd
								{
									OFFSET 0.000000 0.000000 0.000000
									CHANNELS 6 Xposition Yposition Zposition Zrotation Yrotation Xrotation
									End Site
									{
										OFFSET 0.000000 0.000000 0.100006
									}
								}
							}
						}
					}
				}
			}
		}
	}
	JOINT RightUpLeg
	{
		OFFSET -11.289948 0.000000 0.000000
		CHANNELS 6 Xposition Yposition Zposition Zrotation Yrotation Xrotation
		JOINT RightLeg
		{
			OFFSET 0.000000 0.000000 -38.200329
			CHANNELS 6 Xposition Yposition Zposition Zrotation Yrotation Xrotation
			JOINT RightFoot
			{
				OFFSET 0.000000 0.000000 -39.900856
				CHANNELS 6 Xposition Yposition Zposition Zrotation Yrotation Xrotation
				JOINT RightToeBase
				{
					OFFSET 0.000000 -15.261658 0.000001
					CHANNELS 6 Xposition Yposition Zposition Zrotation Yrotation Xrotation
					JOINT RightToeBaseEnd
					{
						OFFSET 0.000000 -7.370728 0.000000
						CHANNELS 6 Xposition Yposition Zposition Zrotation Yrotation Xrotation
						End Site
						{
							OFFSET 0.000000 0.000000 0.100000
						}
					}
				}
				JOINT RightLegEnd
				{
					OFFSET 0.000000 0.000000 0.000000
					CHANNELS 6 Xposition Yposition Zposition Zrotation Yrotation Xrotation
					End Site
					{
						OFFSET 0.000000 0.000000 0.100000
					}
				}
			}
			JOINT RightUpLegEnd
			{
				OFFSET 0.000000 0.000000 0.000000
				CHANNELS 6 Xposition Yposition Zposition Zrotation Yrotation Xrotation
				End Site
				{
					OFFSET 0.000000 0.000000 0.099998
				}
			}
		}
	}
	JOINT LeftUpLeg
	{
		OFFSET 11.315674 0.000000 0.000000
		CHANNELS 6 Xposition Yposition Zposition Zrotation Yrotation Xrotation
		JOINT LeftLeg
		{
			OFFSET 0.000000 0.000000 -38.200329
			CHANNELS 6 Xposition Yposition Zposition Zrotation Yrotation Xrotation
			JOINT LeftFoot
			{
				OFFSET 0.000000 0.000000 -39.900856
				CHANNELS 6 Xposition Yposition Zposition Zrotation Yrotation Xrotation
				JOINT LeftToeBase
				{
					OFFSET 0.000000 -15.261658 0.000001
					CHANNELS 6 Xposition Yposition Zposition Zrotation Yrotation Xrotation
					JOINT LeftToeBaseEnd
					{
						OFFSET 0.000000 -7.539978 0.000000
						CHANNELS 6 Xposition Yposition Zposition Zrotation Yrotation Xrotation
						End Site
						{
							OFFSET 0.000000 0.000000 0.100000
						}
					}
				}
				JOINT LeftLegEnd
				{
					OFFSET 0.000000 0.000000 0.000000
					CHANNELS 6 Xposition Yposition Zposition Zrotation Yrotation Xrotation
					End Site
					{
						OFFSET 0.000000 0.000000 0.100000
					}
				}
			}
			JOINT LeftUpLegEnd
			{
				OFFSET 0.000000 0.000000 0.000000
				CHANNELS 6 Xposition Yposition Zposition Zrotation Yrotation Xrotation
				End Site
				{
					OFFSET 0.000000 0.000000 0.099998
				}
			}
		}
	}
}
MOTION
Frames: 2
Frame Time: 0.016667
-2.299255 -6.157715 82.786568 6.441535 1.212080 -15.472093 -0.000009 2.080182 8.814240 -0.290400 -2.990599 18.086771 0.000001 -0.000015 8.844147 -0.122060 -0.438748 10.956838 0.000011 0.000010 11.682273 0.220409 -0.102587 13.489135 0.000008 0.000010 11.746700 0.210199 -0.087853 10.466449 0.000017 0.000015 17.658257 12.711610 6.614756 29.133281 0.000004 -0.000023 5.101517 10.806620 -2.533604 8.371674 -0.000006 0.000017 5.101536 -1.285410 3.803932 -17.815681 -0.000015 0.000062 11.655063 0.000001 0.000002 0.000001 -2.625404 -0.000008 11.175241 14.441713 -75.058902 -0.055554 0.000011 0.000031 10.434708 44.815217 -52.159108 15.422536 0.000004 0.000015 29.628387 21.404915 -0.066552 124.469952 -0.000008 -0.000044 22.857582 21.827808 18.489506 13.329436 -2.867306 -2.944260 3.959625 31.499200 -20.323428 47.017742 0.000008 -0.000046 3.350433 -19.492945 10.426682 -34.046184 0.000000 -0.000053 3.756527 -12.873022 8.506283 -23.213117 -0.000013 -0.000071 3.147367 0.000001 -0.000001 -0.000000 -0.086754 -2.345280 10.030884 -18.680781 -36.946590 17.322958 -0.000015 -0.000027 4.061134 -0.529293 -27.526786 4.200367 -0.000004 0.000022 3.248848 -1.029293 -27.526765 4.200352 -0.000020 -0.000003 2.639704 0.000001 -0.000000 0.000000 0.104069 -0.006821 9.502953 -12.303169 -37.458755 12.399568 0.000010 -0.000060 4.568707 0.128427 -27.139427 1.539374 -0.000065 -0.000079 3.654968 -0.371575 -27.139359 1.539374 -0.000031 -0.000061 2.741235 -0.000000 -0.000000 0.000001 0.086766 2.267476 8.921715 -2.865099 -41.503323 4.760945 0.000024 -0.000074 4.061090 -0.491105 -29.164068 -1.956017 -0.000027 0.000024 3.654966 0.508898 -29.164020 -1.956020 0.000004 -0.000002 2.741228 -0.000000 0.000000 -0.000000 -0.173508 4.467169 7.976990 8.438245 -41.265643 -5.363222 -0.000023 0.000071 3.350384 -0.425863 -28.781075 -6.129614 -0.000066 -0.000006 2.842720 1.574140 -28.781082 -6.129609 0.000004 -0.000063 2.639733 0.000001 -0.000000 -0.000001 0.000017 0.000049 0.000008 0.000001 0.000000 -0.000001 -0.000003 -0.000006 -0.000005 0.000000 0.000000 0.000001 2.625374 -0.000036 11.175195 -13.727163 72.599133 -0.147331 -0.000040 0.000038 10.813641 91.996248 54.633242 70.159710 0.000048 0.000004 28.724777 -8.980038 -1.023935 66.508926 0.644474 0.328850 25.716103 -80.064133 -15.933356 -18.628731 2.867287 -2.944290 3.959587 -31.586691 17.619185 50.974668 0.000008 -0.000023 3.350407 13.456704 -8.731101 -24.185444 -0.000011 -0.000004 3.756535 8.945614 -6.680277 -16.547298 -0.000006 0.000001 3.099993 -0.000000 0.000000 -0.000000 0.086761 -2.345263 10.030908 -5.678313 18.247899 1.473614 -0.000009 -0.000009 4.061102 0.301772 12.550864 -1.796224 0.000009 0.000017 3.248871 -0.199021 12.549942 -1.796961 0.000000 0.000003 2.639720 -0.000002 0.000002 -0.000001 -0.104106 -0.006801 9.502974 -0.683519 16.432988 1.013980 -0.000015 0.000014 4.568735 0.433607 11.602097 -0.622594 -0.000002 0.000012 3.654985 -0.067726 11.602202 -0.622842 0.000002 0.000015 2.741248 0.000000 0.000001 0.000000 -0.086761 2.267490 8.921726 7.604297 16.161063 0.012377 0.000010 -0.000002 4.061102 -0.912856 11.434902 0.716836 -0.000014 0.000010 3.654974 0.079668 11.434830 0.710693 0.000010 0.000004 2.741250 0.000001 0.000001 -0.000001 0.173481 4.467220 7.977018 16.029955 15.010835 -0.841015 -0.000011 0.000003 3.350439 -1.822145 10.068957 1.979723 0.000005 0.000005 2.842730 0.174604 10.068798 1.979480 0.000005 -0.000001 2.639706 0.000000 0.000001 -0.000000 -0.000016 -0.000022 0.000011 0.000004 0.000001 -0.000000 0.000026 -0.000010 0.000016 0.000001 0.000001 0.000000 -11.289951 -0.000046 0.000019 -11.080881 5.657801 -6.001094 0.000003 -0.000046 -38.200367 -0.390553 0.361757 42.868617 0.000019 0.000071 -39.900856 -12.244875 -3.600508 3.475806 0.000004 -15.261595 -0.000001 2.103751 0.266328 -14.764188 0.000004 -7.370683 -0.000001 0.000002 -0.000000 -0.000001 0.000013 0.000055 -0.000001 0.000001 0.000000 -0.000002 -0.000006 -0.000064 -0.000000 0.000000 -0.000000 -0.000001 11.315681 -0.000003 0.000004 2.086081 -8.997780 -4.118855 0.000007 0.000017 -38.200298 0.302337 -0.295911 44.423079 -0.000003 0.000005 -39.900852 7.813932 5.202221 1.979482 0.000010 -15.261600 0.000002 -1.662819 -0.177350 -18.197255 -0.000001 -7.539909 -0.000001 -0.000001 -0.000000 0.000000 0.000015 0.000067 0.000001 -0.000001 -0.000001 -0.000000 0.000006 0.000004 -0.000004 -0.000001 -0.000000 0.000000 
-2.302368 -6.158325 82.794281 6.422039 1.200660 -15.424918 0.000014 2.080098 8.814232 -0.286561 -3.023550 18.089577 -0.000012 -0.000028 8.844136 -0.094654 -0.452666 10.926544 0.000015 0.000002 11.682295 0.221509 -0.083460 13.452182 -0.000002 -0.000016 11.746709 0.208265 -0.035702 10.475441 -0.000010 0.000031 17.658287 12.738013 5.982537 29.772275 -0.000017 -0.000027 5.101534 10.934190 -2.665516 8.570591 0.000001 0.000022 5.101511 -1.328623 3.834507 -17.848348 -0.000034 0.000002 11.655069 0.000001 0.000000 0.000002 -2.625389 -0.000036 11.175195 14.332805 -74.597953 -0.067694 0.000008 0.000031 10.434738 45.624595 -51.253132 15.966160 0.000004 -0.000015 29.628412 21.673766 -0.080365 124.743228 0.000008 -0.000085 22.857597 22.268770 17.865640 11.757842 -2.867302 -2.944229 3.959625 31.494176 -20.139685 47.280424 0.000008 -0.000023 3.350418 -19.081225 10.345828 -33.382232 0.000004 -0.000038 3.756538 -12.604277 8.398853 -22.764459 0.000015 -0.000014 3.147335 0.000002 0.000000 0.000001 -0.086761 -2.345266 10.030899 -18.372649 -36.233611 17.309940 0.000013 -0.000021 4.061104 -0.488531 -27.028211 4.111417 -0.000042 -0.000018 3.248890 -0.988533 -27.028138 4.111409 -0.000029 0.000004 2.639725 -0.000001 -0.000000 0.000001 0.104073 -0.006748 9.502907 -12.060354 -36.749870 12.411287 -0.000023 -0.000073 4.568707 0.143500 -26.633587 1.506037 0.000014 -0.000072 3.654969 -0.356495 -26.633571 1.506038 -0.000060 -0.000063 2.741234 0.000000 -0.000000 0.000001 0.086746 2.267529 8.921730 -2.687803 -40.699263 4.867853 0.000027 -0.000010 4.061068 -0.513444 -28.584430 -1.909758 -0.000023 0.000005 3.654987 0.486558 -28.584407 -1.909760 0.000034 -0.000001 2.741250 0.000000 -0.000000 0.000001 -0.173500 4.467241 7.977028 8.485055 -40.420134 -5.070532 -0.000038 0.000036 3.350376 -0.499792 -28.168120 -5.974547 -0.000011 0.000022 2.842731 1.500200 -28.168115 -5.974540 0.000003 -0.000062 2.639753 0.000001 -0.000001 -0.000000 0.000007 0.000062 -0.000003 0.000000 0.000001 -0.000000 -0.000008 -0.000006 0.000007 0.000000 -0.000001 -0.000000 2.625381 0.000050 11.175219 -13.987405 72.472474 -0.145496 -0.000009 0.000004 10.813641 92.264524 54.799400 70.340013 0.000042 0.000046 28.724838 -8.990273 -1.109640 66.439511 0.644466 0.328873 25.716156 -80.086577 -15.867028 -18.674845 2.867294 -2.944260 3.959557 -31.586698 17.619188 50.974661 0.000004 -0.000023 3.350391 13.456711 -8.731124 -24.185425 -0.000008 0.000000 3.756512 8.945617 -6.680277 -16.547306 0.000004 -0.000002 3.099995 0.000000 0.000002 0.000001 0.086754 -2.345305 10.030906 -5.677692 18.248662 1.456726 0.000000 0.000012 4.061104 0.301367 12.552143 -1.796738 0.000006 -0.000010 3.248869 -0.199593 12.552159 -1.798649 -0.000032 0.000011 2.639724 -0.000002 0.000002 -0.000001 -0.104094 -0.006751 9.502944 -0.681922 16.439405 1.004210 0.000003 -0.000015 4.568725 0.433659 11.608196 -0.622918 -0.000011 0.000028 3.655002 -0.067927 11.607949 -0.623294 -0.000005 -0.000011 2.741250 0.000002 0.000003 -0.000001 -0.086754 2.267467 8.921719 7.608172 16.179924 0.016978 -0.000010 -0.000026 4.061096 -0.912894 11.448212 0.717305 -0.000005 -0.000025 3.654961 0.079776 11.448145 0.711541 -0.000005 0.000012 2.741267 -0.000003 -0.000002 0.000001 0.173489 4.467203 7.977007 16.038034 15.041972 -0.836140 -0.000010 -0.000030 3.350368 -1.821880 10.090778 1.982920 0.000010 -0.000006 2.842752 0.175225 10.090763 1.982408 -0.000044 -0.000008 2.639701 0.000001 -0.000000 -0.000003 0.000004 -0.000010 -0.000002 0.000002 0.000001 0.000005 0.000029 0.000016 0.000011 -0.000003 -0.000001 -0.000000 -11.289963 -0.000047 0.000004 -11.077305 5.657550 -6.043446 -0.000010 -0.000045 -38.200382 -0.390719 0.361712 42.847115 0.000022 0.000007 -39.900864 -12.237232 -3.587276 3.486295 0.000015 -15.261651 -0.000002 2.102388 0.265509 -14.763951 -0.000012 -7.370646 -0.000001 -0.000003 0.000000 -0.000000 0.000013 0.000079 -0.000002 -0.000003 -0.000000 -0.000002 0.000001 -0.000059 0.000010 -0.000000 0.000000 0.000000 11.315679 -0.000066 -0.000004 2.105164 -8.988125 -4.148411 0.000002 0.000037 -38.200287 0.302376 -0.295700 44.391855 -0.000006 -0.000012 -39.900848 7.827737 5.203780 2.004427 -0.000010 -15.261585 -0.000019 -1.666447 -0.177820 -18.204737 -0.000011 -7.539978 0.000000 -0.000000 -0.000000 0.000001 -0.000004 0.000087 -0.000001 -0.000004 0.000001 -0.000002 0.000011 0.000003 -0.000002 -0.000000 0.000000 -0.000000 
